<?xml version="1.0" encoding="UTF-8" standalone="no"?>
<svg width="82px" height="96px" viewBox="0 0 82 96" version="1.1" xmlns="http://www.w3.org/2000/svg" xmlns:xlink="http://www.w3.org/1999/xlink" xmlns:sketch="http://www.bohemiancoding.com/sketch/ns">
    <title>Group</title>
    <description>Created with Sketch (http://www.bohemiancoding.com/sketch)</description>
    <defs></defs>
    <g id="Page 1" stroke="none" stroke-width="1" fill="none" fill-rule="evenodd">
        <g id="Group">
            <path d="M41,82 C63.6436759,82 82,63.6436759 82,41 C82,18.3563241 63.6436759,0 41,0 C18.3563241,0 0,18.3563241 0,41 C0,63.6436759 18.3563241,82 41,82 Z M41,82" id="Oval 1" fill="#FFFFFF"></path>
            <path d="M41,75 C59.7776824,75 75,59.7776824 75,41 C75,22.2223176 59.7776824,7 41,7 C22.2223176,7 7,22.2223176 7,41 C7,59.7776824 22.2223176,75 41,75 Z M41,75" id="Oval 1" stroke="#FC695A" stroke-width="5" fill="#FFFFFF"></path>
            <path d="M41,11 C41,11 47.5844089,19.0247483 48.8061902,26.5806487 C46.4077519,25.5629277 43.7696368,25 41,25 C38.2303632,25 35.5922481,25.5629277 33.1938098,26.5806487 C34.4155911,19.0247483 41,11 41,11 Z M41,11" id="Shape copy" fill="#FC695A"></path>
            <path d="M41,25 C29.954,25 21,33.954 21,45 C21,65 41,89 41,89 C41,89 61,65 61,45 C61,33.954 52.046,25 41,25 L41,25 Z M41,25" id="Shape" stroke="#FFFFFF" stroke-width="4" fill="#FC695A"></path>
            <path d="M41,57 C34.372,57 29,51.628 29,45 C29,38.372 34.372,33 41,33 C47.628,33 53,38.372 53,45 C53,51.628 47.627,57 41,57 L41,57 Z M41,57" id="Path" fill="#FFFFFF"></path>
        </g>
    </g>
</svg>